<svg width="110" height="62" viewBox="0 0 110 62" fill="none" xmlns="http://www.w3.org/2000/svg">
<g clip-path="url(#clip0_141_132)">
<path d="M22.0749 37.289C22.1925 37.8928 22.3986 38.4762 22.6865 39.0204V39.6582H16.5551C16.2854 39.0251 16.0755 38.3684 15.9281 37.6966C15.445 38.3091 14.83 38.8057 14.1285 39.1497C13.4318 39.496 12.5357 39.6691 11.4401 39.6691C10.3393 39.6778 9.25142 39.4333 8.26106 38.9546C7.31497 38.5064 6.50725 37.813 5.92246 36.9471C5.33522 36.0756 5.02827 35.0466 5.04246 33.9971C5.04246 32.0275 5.7758 30.5058 7.24246 29.4319C8.70913 28.3579 10.9531 27.821 13.9745 27.821H15.5981V26.9443C15.5981 26.1918 15.4382 25.6184 15.1185 25.2239C14.7987 24.8294 14.2854 24.6321 13.5785 24.6321C12.9625 24.6321 12.5056 24.7738 12.2079 25.0573C11.9101 25.3407 11.7635 25.8076 11.7679 26.4578H5.50006C5.48309 25.2807 5.8438 24.1289 6.52966 23.1703C7.2754 22.1653 8.29132 21.3911 9.46006 20.937C10.8712 20.3829 12.3788 20.114 13.8953 20.1458C15.3045 20.1218 16.7037 20.3851 18.0071 20.9194C19.1642 21.3925 20.1543 22.1972 20.8517 23.2316C21.5381 24.2544 21.8813 25.5037 21.8813 26.9794V34.3741C21.8558 35.3496 21.9206 36.3253 22.0749 37.289ZM14.6103 34.7839C15.0145 34.5963 15.3565 34.2974 15.5959 33.9226V31.1742H13.8359C12.9295 31.1742 12.2783 31.4263 11.8889 31.9325C11.4951 32.4491 11.2888 33.0834 11.3037 33.7319C11.2982 33.9268 11.3399 34.1202 11.4253 34.2957C11.5107 34.4712 11.6372 34.6236 11.7943 34.7401C12.1389 35.0025 12.5641 35.138 12.9977 35.1236C13.5546 35.1391 14.1073 35.0227 14.6103 34.7839Z" fill="#2E2D2C"/>
<path d="M42.1212 20.4943V39.6691H36.3286L36.08 37.2583C35.5105 38.0146 34.7715 38.6278 33.9218 39.0489C33.044 39.4725 32.0788 39.6849 31.1036 39.6691C29.1353 39.6691 27.5865 39.1008 26.4572 37.964C25.3279 36.8273 24.7632 35.0644 24.7632 32.6755V20.4943H31.0332V32.7062C31.0191 32.9699 31.0616 33.2336 31.158 33.4797C31.2544 33.7257 31.4023 33.9485 31.592 34.133C31.9638 34.4793 32.516 34.6546 33.2508 34.6546C34.496 34.6546 35.3577 34.2484 35.8358 33.436V20.5052L42.1212 20.4943Z" fill="#2E2D2C"/>
<path d="M55.691 34.4968V39.1256C54.5829 39.4981 53.4197 39.6819 52.2502 39.6691C50.213 39.6691 48.673 39.1877 47.6302 38.2248C46.5874 37.262 46.066 35.7541 46.066 33.7012V24.9981H43.833V20.4943H46.0682V15.7625H52.3382V20.4943H55.3764V24.9981H52.3382V32.7413C52.3241 33.1129 52.377 33.4841 52.4944 33.8371C52.5438 33.9634 52.619 34.078 52.7152 34.1738C52.8114 34.2696 52.9265 34.3445 53.0532 34.3938C53.4298 34.5201 53.8266 34.5759 54.2236 34.5582C54.7136 34.5733 55.204 34.5528 55.691 34.4968Z" fill="#2E2D2C"/>
<path d="M74.8639 31.9983H63.3909C63.6022 32.7864 64.0881 33.474 64.7615 33.9379C65.5003 34.4167 66.3689 34.6577 67.2497 34.6283C68.0634 34.6324 68.8712 34.4906 69.6345 34.2097C70.3813 33.9345 71.0412 33.4662 71.5463 32.8531L74.3227 36.489C73.8426 37.1023 73.2607 37.6293 72.6023 38.0473C71.8057 38.56 70.9387 38.9549 70.0283 39.2199C68.9912 39.5275 67.9138 39.6789 66.8317 39.6691C64.8063 39.6691 63.0463 39.2513 61.5517 38.4155C60.1096 37.6456 58.9159 36.4845 58.1087 35.0667C57.3252 33.6788 56.9187 32.1112 56.9295 30.5189V29.8746C56.9041 28.177 57.2502 26.4942 57.9437 24.9434C58.5987 23.4927 59.6754 22.2712 61.0347 21.4367C62.4193 20.5732 64.1301 20.1414 66.1673 20.1414C67.9391 20.1414 69.4791 20.5067 70.7873 21.2373C72.0931 21.9636 73.1465 23.068 73.8079 24.4042C74.5119 25.782 74.8639 27.4229 74.8639 29.3267V31.9983ZM66.1167 25.2042C65.2543 25.2042 64.6075 25.4591 64.1763 25.9691C63.7061 26.5748 63.4109 27.297 63.3227 28.0577H68.7699V27.5514C68.8169 25.9778 67.9325 25.191 66.1167 25.191V25.2042Z" fill="#2E2D2C"/>
<path d="M103.075 21.8772C104.101 23.03 104.615 24.9463 104.615 27.6259V39.6691H98.3401V27.6435C98.3667 27.1127 98.2921 26.5817 98.1201 26.0786C98.0067 25.761 97.7751 25.499 97.4733 25.3466C97.1184 25.2056 96.7376 25.1406 96.3557 25.1559C95.8795 25.1377 95.4075 25.2508 94.9917 25.4828C94.5759 25.7149 94.2326 26.0568 93.9995 26.4709V39.6691H87.7295V27.6785C87.7591 27.1246 87.6845 26.5701 87.5095 26.0435C87.4549 25.8875 87.3696 25.744 87.2585 25.6213C87.1474 25.4986 87.0129 25.3992 86.8627 25.3291C86.493 25.1988 86.1017 25.14 85.7099 25.1559C85.2453 25.1517 84.7885 25.2753 84.3899 25.5132C83.9762 25.7625 83.6266 26.1048 83.3691 26.5126V39.6626H77.0991V20.4943H82.9401L83.1601 22.7539C83.7676 21.9374 84.5597 21.2751 85.4723 20.8208C86.4312 20.3567 87.4865 20.1247 88.5523 20.1436C90.899 20.1436 92.4823 21.0889 93.3021 22.9796C93.8724 22.095 94.6599 21.37 95.5901 20.8734C96.5769 20.3724 97.6728 20.1224 98.7801 20.1458C100.612 20.1458 102.043 20.7229 103.075 21.8772Z" fill="#2E2D2C"/>
<mask id="mask0_141_132" style="mask-type:luminance" maskUnits="userSpaceOnUse" x="12" y="0" width="100" height="40">
<path d="M12.3311 39.6691C26.2228 38.7522 40.0118 36.6656 53.5503 33.4316C68.6621 29.8066 78.5819 27.3366 89.7205 20.1633C98.0224 14.7746 105.286 7.94525 111.166 0V39.6691H12.3311Z" fill="white"/>
</mask>
<g mask="url(#mask0_141_132)">
<path d="M22.0749 37.2977C22.1928 37.9008 22.3989 38.4834 22.6865 39.0269V39.6647H16.5551C16.2847 39.0297 16.0748 38.3707 15.9281 37.6966C15.445 38.3091 14.83 38.8057 14.1285 39.1497C13.4318 39.496 12.5357 39.6691 11.4401 39.6691C10.3395 39.6786 9.25159 39.4348 8.26108 38.9568C7.31484 38.5078 6.50713 37.8136 5.92248 36.947C5.33498 36.0757 5.02801 35.0466 5.04248 33.9971C5.04248 32.026 5.77581 30.5043 7.24248 29.4318C8.70915 28.3594 10.9524 27.8268 13.9723 27.8341H15.5959V26.9574C15.5959 26.2035 15.436 25.6293 15.1163 25.2348C14.7965 24.8403 14.2832 24.643 13.5763 24.643C12.9603 24.643 12.5034 24.7855 12.2057 25.0704C11.9079 25.3553 11.7613 25.8214 11.7657 26.4687H5.50008C5.48311 25.2916 5.84382 24.1398 6.52968 23.1812C7.27542 22.1752 8.29121 21.3996 9.46008 20.9435C10.8744 20.3935 12.3841 20.1283 13.9019 20.1633C15.3111 20.1393 16.7103 20.4026 18.0137 20.9369C19.1656 21.4071 20.1528 22.2053 20.8517 23.2316C21.5381 24.2544 21.8813 25.5044 21.8813 26.9815V34.374C21.8555 35.3524 21.9203 36.3311 22.0749 37.2977ZM14.6103 34.7926C15.0137 34.6037 15.3553 34.3051 15.5959 33.9313V31.183H13.8359C12.9295 31.183 12.2783 31.435 11.8889 31.9391C11.4951 32.4556 11.2888 33.09 11.3037 33.7384C11.2984 33.9337 11.3401 34.1273 11.4255 34.3031C11.5109 34.4789 11.6373 34.6318 11.7943 34.7488C12.1397 35.0096 12.5645 35.1443 12.9977 35.1302C13.5543 35.1451 14.1067 35.0295 14.6103 34.7926Z" fill="#E1AD00"/>
<path d="M42.1212 20.5008V39.6691H36.3286L36.08 37.2583C35.5105 38.0146 34.7715 38.6277 33.9218 39.0488C33.044 39.4724 32.0788 39.6849 31.1036 39.6691C29.1353 39.6691 27.5865 39.1007 26.4572 37.964C25.3279 36.8272 24.7632 35.0644 24.7632 32.6755V20.5008H31.0332V32.7127C31.0191 32.9765 31.0616 33.2402 31.158 33.4862C31.2544 33.7323 31.4023 33.955 31.592 34.1395C31.9631 34.4887 32.516 34.6626 33.2508 34.6611C34.496 34.6611 35.3577 34.2549 35.8358 33.4426V20.5118L42.1212 20.5008Z" fill="#E1AD00"/>
<path d="M55.691 34.5055V39.1322C54.5825 39.5025 53.4193 39.684 52.2502 39.6691C50.213 39.6691 48.673 39.1877 47.6302 38.2248C46.5874 37.2619 46.066 35.7548 46.066 33.7034V25.0069H43.833V20.5008H46.0682V15.78H52.3382V20.5008H55.3764V25.0069H52.3382V32.7478C52.3241 33.1195 52.377 33.4906 52.4944 33.8437C52.5435 33.9701 52.6185 34.085 52.7148 34.1808C52.811 34.2767 52.9263 34.3515 53.0532 34.4004C53.4298 34.5267 53.8266 34.5824 54.2236 34.5647C54.7135 34.5792 55.2039 34.5594 55.691 34.5055Z" fill="#E1AD00"/>
<path d="M74.8639 31.9983H63.3909C63.6022 32.7864 64.088 33.4739 64.7615 33.9379C65.5003 34.4167 66.3689 34.6577 67.2497 34.6283C68.0633 34.6331 68.8711 34.492 69.6345 34.2118C70.3808 33.9357 71.0405 33.4677 71.5463 32.8552L74.3227 36.4912C73.8424 37.1037 73.2606 37.63 72.6023 38.0473C71.8058 38.5607 70.9388 38.9563 70.0283 39.222C68.9909 39.5278 67.9136 39.6785 66.8317 39.6691C64.8062 39.6691 63.0462 39.2519 61.5517 38.4176C60.1097 37.6465 58.9161 36.4848 58.1087 35.0666C57.3254 33.6778 56.919 32.1096 56.9295 30.5167V29.8723C56.9043 28.1747 57.2504 26.492 57.9437 24.9411C58.5999 23.4913 59.6764 22.2701 61.0347 21.4344C62.4192 20.587 64.1301 20.1633 66.1673 20.1633C67.939 20.1633 69.479 20.5285 70.7873 21.2591C72.0925 21.9861 73.1458 23.0903 73.8079 24.4261C74.5119 25.8068 74.8639 27.4476 74.8639 29.3485V31.9983ZM66.1167 25.2041C65.2543 25.2041 64.6075 25.4591 64.1763 25.969C63.7064 26.5749 63.4113 27.2971 63.3227 28.0576H68.7699V27.5536C68.8168 25.9873 67.9324 25.2041 66.1167 25.2041Z" fill="#E1AD00"/>
<path d="M103.075 21.8838C104.101 23.0395 104.615 24.9557 104.615 27.6325V39.6691H98.3401V27.65C98.3667 27.1193 98.2921 26.5883 98.1201 26.0852C98.0067 25.7676 97.7751 25.5056 97.4733 25.3532C97.1184 25.2121 96.7376 25.1472 96.3557 25.1625C95.8795 25.1442 95.4075 25.2574 94.9917 25.4894C94.5759 25.7214 94.2326 26.0634 93.9995 26.4775V39.6691H87.7295V27.6851C87.7589 27.1312 87.6843 26.5767 87.5095 26.0501C87.4549 25.8944 87.3695 25.7512 87.2584 25.6288C87.1473 25.5065 87.0128 25.4076 86.8627 25.3378C86.4933 25.2064 86.1019 25.1468 85.7099 25.1625C85.2453 25.1582 84.7885 25.2819 84.3899 25.5197C83.9766 25.7697 83.6272 26.1118 83.3691 26.5191V39.6691H77.0991V20.5008H82.9401L83.1601 22.7626C83.7622 21.9485 84.5483 21.287 85.4547 20.8318C86.413 20.3659 87.4686 20.1331 88.5347 20.1523C90.8814 20.1523 92.4646 21.0977 93.2845 22.9884C93.8549 22.1044 94.6424 21.3801 95.5725 20.8844C96.5648 20.3818 97.6673 20.134 98.7801 20.1633C100.612 20.1633 102.043 20.7368 103.075 21.8838Z" fill="#E1AD00"/>
</g>
</g>
<defs>
<clipPath id="clip0_141_132">
<rect width="110" height="62" fill="white"/>
</clipPath>
</defs>
</svg>
