<svg xmlns="http://www.w3.org/2000/svg" xmlns:xlink="http://www.w3.org/1999/xlink" viewBox="0 0 500 282.89"><defs><style>.cls-1{fill:none;}.cls-2{fill:#2e2d2c;}.cls-3{clip-path:url(#clip-path);}.cls-4{fill:#e1ad00;}</style><clipPath id="clip-path"><path class="cls-1" d="M56.05,181a1121.52,1121.52,0,0,0,187.36-28.46C312.1,136,357.19,124.73,407.82,92A376.38,376.38,0,0,0,505.3,0V181Z"/></clipPath></defs><title>autem_v4</title><g id="Calque_4" data-name="Calque 4"><path class="cls-2" d="M100.34,170.14a28.65,28.65,0,0,0,2.78,7.9l0,2.91H75.25A50.58,50.58,0,0,1,72.4,172a23.73,23.73,0,0,1-8.18,6.63Q59.47,181,52,181a32.51,32.51,0,0,1-14.45-3.26,26.56,26.56,0,0,1-10.63-9.16,23.58,23.58,0,0,1-4-13.46q0-13.48,10-20.83t30.6-7.35h7.38v-4q0-5.15-2.18-7.85t-7-2.7q-4.2,0-6.23,1.94t-2,6.39H25a25.22,25.22,0,0,1,4.68-15A30.22,30.22,0,0,1,43,95.53a52,52,0,0,1,20.16-3.61,47,47,0,0,1,18.69,3.53A28.7,28.7,0,0,1,94.78,106q4.68,7,4.68,17.1v33.74A72.47,72.47,0,0,0,100.34,170.14ZM66.41,158.71a10.63,10.63,0,0,0,4.48-3.93V142.24h-8c-4.12,0-7.08,1.15-8.85,3.46a13.08,13.08,0,0,0-2.66,8.21,5.54,5.54,0,0,0,2.23,4.6,8.54,8.54,0,0,0,5.47,1.75A16,16,0,0,0,66.41,158.71Z"/><path class="cls-2" d="M191.46,93.51V181H165.13L164,170a27.67,27.67,0,0,1-9.81,8.17A28.33,28.33,0,0,1,141.38,181q-13.42,0-21.12-7.78t-7.7-24.13V93.51h28.5v55.72a8.47,8.47,0,0,0,2.54,6.51c1.69,1.58,4.2,2.38,7.54,2.38q8.49,0,11.75-5.56v-59Z"/><path class="cls-2" d="M253.14,157.4v21.12A47.29,47.29,0,0,1,237.5,181q-13.89,0-21-6.59t-7.11-20.64V114.06H199.24V93.51H209.4V71.92h28.5V93.51h13.81v20.55H237.9v35.33a14.2,14.2,0,0,0,.71,5,4.47,4.47,0,0,0,2.54,2.54,14.62,14.62,0,0,0,5.32.75A45.74,45.74,0,0,0,253.14,157.4Z"/><path class="cls-2" d="M340.29,146H288.14a15.68,15.68,0,0,0,6.23,8.85A19.54,19.54,0,0,0,305.68,158a30.83,30.83,0,0,0,10.84-1.91,20.4,20.4,0,0,0,8.69-6.19l12.62,16.59a31.15,31.15,0,0,1-7.82,7.11,44.62,44.62,0,0,1-11.7,5.35A49.35,49.35,0,0,1,303.78,181q-13.81,0-24-5.72A39.37,39.37,0,0,1,264.13,160a41.75,41.75,0,0,1-5.36-20.75v-2.94a53.33,53.33,0,0,1,4.61-22.5,36.27,36.27,0,0,1,14.05-16q9.44-5.91,23.33-5.91,12.08,0,21,5a33.54,33.54,0,0,1,13.73,14.45q4.8,9.43,4.8,22.46Zm-39.76-31q-5.88,0-8.82,3.49a19.17,19.17,0,0,0-3.88,9.53h24.76v-2.31Q312.91,114.94,300.53,114.94Z"/><path class="cls-2" d="M468.52,99.82q7,7.89,7,26.23V181H447V126.13a19.18,19.18,0,0,0-1-7.14,6,6,0,0,0-2.94-3.34,12.37,12.37,0,0,0-5.08-.87,11.76,11.76,0,0,0-10.71,6V181h-28.5V126.29a20.3,20.3,0,0,0-1-7.46,5.66,5.66,0,0,0-2.94-3.26,14,14,0,0,0-5.24-.79,11.47,11.47,0,0,0-6,1.63,14.11,14.11,0,0,0-4.64,4.56v60H350.45V93.51H377l1,10.31A29.49,29.49,0,0,1,388.51,95a30.78,30.78,0,0,1,14-3.09q16,0,21.59,12.94a28.18,28.18,0,0,1,10.4-9.61A30.51,30.51,0,0,1,449,91.92Q461.49,91.92,468.52,99.82Z"/><g class="cls-3"><path class="cls-4" d="M100.34,170.18a28.69,28.69,0,0,0,2.78,7.89l0,2.91H75.25A50.31,50.31,0,0,1,72.4,172a23.73,23.73,0,0,1-8.18,6.63Q59.47,181,52,181a32.5,32.5,0,0,1-14.45-3.25,26.58,26.58,0,0,1-10.63-9.17,23.56,23.56,0,0,1-4-13.46q0-13.49,10-20.83T63.51,127h7.38v-4q0-5.16-2.18-7.86t-7-2.7q-4.2,0-6.23,1.95t-2,6.38H25a25.22,25.22,0,0,1,4.68-15A30.29,30.29,0,0,1,43,95.56,52.2,52.2,0,0,1,63.19,92a47,47,0,0,1,18.69,3.53A28.77,28.77,0,0,1,94.78,106q4.68,7,4.68,17.11v33.73A72.67,72.67,0,0,0,100.34,170.18ZM66.41,158.75a10.76,10.76,0,0,0,4.48-3.93V142.28h-8c-4.12,0-7.08,1.15-8.85,3.45a13.08,13.08,0,0,0-2.66,8.21,5.57,5.57,0,0,0,2.23,4.61,8.59,8.59,0,0,0,5.47,1.74A16.15,16.15,0,0,0,66.41,158.75Z"/><path class="cls-4" d="M191.46,93.54V181H165.13L164,170a27.67,27.67,0,0,1-9.81,8.17A28.33,28.33,0,0,1,141.38,181q-13.42,0-21.12-7.78t-7.7-24.13V93.54h28.5v55.72a8.47,8.47,0,0,0,2.54,6.51q2.53,2.39,7.54,2.38,8.49,0,11.75-5.56v-59Z"/><path class="cls-4" d="M253.14,157.44v21.11A47.29,47.29,0,0,1,237.5,181q-13.89,0-21-6.59t-7.11-20.63V114.1H199.24V93.54H209.4V72h28.5V93.54h13.81V114.1H237.9v35.32a14.2,14.2,0,0,0,.71,5,4.44,4.44,0,0,0,2.54,2.54,14.62,14.62,0,0,0,5.32.75A47.69,47.69,0,0,0,253.14,157.44Z"/><path class="cls-4" d="M340.29,146H288.14a15.68,15.68,0,0,0,6.23,8.85A19.54,19.54,0,0,0,305.68,158a30.83,30.83,0,0,0,10.84-1.9,20.49,20.49,0,0,0,8.69-6.19l12.62,16.59a31.12,31.12,0,0,1-7.82,7.1,44.63,44.63,0,0,1-11.7,5.36A49.69,49.69,0,0,1,303.78,181q-13.81,0-24-5.71A39.43,39.43,0,0,1,264.13,160a41.82,41.82,0,0,1-5.36-20.76v-2.94a53.37,53.37,0,0,1,4.61-22.5,36.38,36.38,0,0,1,14.05-16Q286.87,92,300.76,92q12.08,0,21,5a33.6,33.6,0,0,1,13.73,14.45q4.8,9.45,4.8,22.46Zm-39.76-31q-5.88,0-8.82,3.49a19.21,19.21,0,0,0-3.88,9.53h24.76v-2.3Q312.91,115,300.53,115Z"/><path class="cls-4" d="M468.52,99.85q7,7.91,7,26.23V181H447V126.16a19.18,19.18,0,0,0-1-7.14,6,6,0,0,0-2.94-3.34,12.37,12.37,0,0,0-5.08-.87,11.76,11.76,0,0,0-10.71,6V181h-28.5V126.32a20.34,20.34,0,0,0-1-7.46,5.64,5.64,0,0,0-2.94-3.25,13.92,13.92,0,0,0-5.24-.8,11.47,11.47,0,0,0-6,1.63,14.2,14.2,0,0,0-4.64,4.56v60H350.45V93.54H377l1,10.32a29.39,29.39,0,0,1,10.43-8.81,30.66,30.66,0,0,1,14-3.1q16,0,21.59,12.94a28.15,28.15,0,0,1,10.4-9.6A30.4,30.4,0,0,1,449,92Q461.49,92,468.52,99.85Z"/></g></g></svg>